:SAMPLES-PER-SECOND 30
:FULLY-SPECIFIED
:DEGREES
356
root  38.2569 32.8999 38.506 -172.149 -50.1204 -175.829
RightUpLeg  -29.8981 -6.61348 14.5903
RightLeg  22.7486 -16.7805 -5.6932
RightFoot  0.889718 0.00671142 -0.486435
RightToes  -15.8463 -0.059534 -0.142616
Spine  5.38104 -6.06911 1.51062
Spine1  10.0155 -13.081 3.75863
HEad  7.62462 -16.3778 23.1251
LeftShoulder1  0 -2.42657e-020 -4.95415e-022
LeftArm  -1.54395 -1.99968 -72.2363
LeftForeArm  39.9379 -51.7029 -12.9231
LeftHand  -0.571677 -7.47481 8.37248
RightShoulder  0 2.42657e-020 1.07489e-018
RightArm  -65.4767 -22.8108 82.3069
RightForeArm  53.4797 14.8584 2.64687
RightHand  -1.34557 18.8707 -7.71644
LeftUpLeg  -3.90674 -0.792328 -3.85209
LeftLeg  19.986 -3.9458 -1.15544
LeftFoot  -14.9164 0.14625 1.11714
LeftToes  -0.243622 9.37529e-007 1.1992e-007
357
root  39.3161 32.8761 38.8157 -172.105 -50.2498 -176.078
RightUpLeg  -31.5708 -9.81459 15.6406
RightLeg  22.7638 -9.72848 -3.34524
RightFoot  3.28288 0.0342731 -0.81824
RightToes  -27.0903 -0.124406 -0.231243
Spine  5.71004 -5.8468 0.794353
Spine1  10.8067 -12.5765 2.33271
HEad  7.57509 -16.5469 24.3945
LeftShoulder1  0 -2.42657e-020 -4.95415e-022
LeftArm  -1.91289 -2.01722 -70.7637
LeftForeArm  39.4492 -51.4743 -12.8158
LeftHand  -0.561623 -7.32402 8.39611
RightShoulder  0 2.42657e-020 1.07489e-018
RightArm  -62.5185 -22.3759 84.3955
RightForeArm  52.7634 16.0775 2.87927
RightHand  -1.4418 18.7031 -8.37144
LeftUpLeg  -5.53551 -0.841092 -3.36365
LeftLeg  20.3182 -3.564 -1.06654
LeftFoot  -15.901 0.15118 1.08245
LeftToes  -0.375473 9.37529e-007 1.1992e-007
358
root  40.2668 32.9447 39.1528 -171.16 -49.5588 -177.228
RightUpLeg  -33.2961 -10.6916 14.7869
RightLeg  23.8727 0.0658208 0.0205925
RightFoot  5.50119 0.0287023 -0.219836
RightToes  -45.5909 -0.264615 -0.344477
Spine  5.84599 -5.47629 0.0362334
Spine1  11.2324 -11.7142 0.76685
HEad  7.69867 -16.3926 24.7655
LeftShoulder1  0 -2.42657e-020 -4.95415e-022
LeftArm  -3.07671 -0.763519 -69.8891
LeftForeArm  39.3057 -50.8959 -12.5478
LeftHand  -0.54596 -7.44296 8.01633
RightShoulder  0 2.42657e-020 1.07489e-018
RightArm  -60.0678 -21.8766 85.6462
RightForeArm  52.5252 17.2764 3.10985
RightHand  -1.56645 18.7462 -9.10188
LeftUpLeg  -7.21925 -1.81945 -3.87055
LeftLeg  20.5006 -1.64861 -0.500681
LeftFoot  -15.3804 0.0696633 0.515893
LeftToes  -0.884712 9.37529e-007 1.1992e-007
359
root  41.1429 33.1068 39.3507 -171.309 -48.6096 -177.211
RightUpLeg  -33.8319 -8.80325 13.1926
RightLeg  24.9674 6.56088 2.54514
RightFoot  6.48452 -0.0116955 0.583942
RightToes  -51.654 -0.317612 -0.371067
Spine  5.97436 -4.99883 -0.337422
Spine1  11.5672 -10.6455 -0.0602071
HEad  7.70386 -16.1069 24.7357
LeftShoulder1  0 -2.42657e-020 -4.95415e-022
LeftArm  -4.52658 1.31857 -69.9039
LeftForeArm  39.0831 -49.7123 -12.0204
LeftHand  -0.566006 -7.49709 8.26034
RightShoulder  0 2.42657e-020 1.07489e-018
RightArm  -57.8804 -21.0965 85.7916
RightForeArm  52.0245 18.2415 3.29833
RightHand  -1.64613 18.9455 -9.47526
LeftUpLeg  -8.64049 -1.67172 -3.21091
LeftLeg  21.0107 -1.05446 -0.331483
LeftFoot  -14.328 0.0399563 0.317884
LeftToes  -2.42275 9.37529e-007 1.1992e-007
360
root  41.9106 33.3073 39.4648 -171.832 -48.1248 -176.59
RightUpLeg  -33.7619 -5.95166 11.0683
RightLeg  26.3804 3.19849 1.33151
RightFoot  4.17301 0.0109557 0.0768244
RightToes  -48.2635 -0.287627 -0.356888
Spine  5.97915 -4.61061 -0.423371
Spine1  11.6298 -9.7594 -0.376123
HEad  7.87296 -16.0787 24.4574
LeftShoulder1  0 -2.42657e-020 -4.95415e-022
LeftArm  -5.75772 4.14205 -70.3519
LeftForeArm  38.2443 -48.8555 -11.6559
LeftHand  -0.538497 -7.28244 8.08445
RightShoulder  0 2.42657e-020 1.07489e-018
RightArm  -55.327 -20.4018 85.0838
RightForeArm  51.0222 19.2401 3.49653
RightHand  -1.55281 18.7886 -8.99819
LeftUpLeg  -9.49305 -1.2851 -2.06264
LeftLeg  20.6415 -0.981141 -0.301639
LeftFoot  -13.0055 0.0293168 0.257191
LeftToes  -3.79282 9.37529e-007 1.1992e-007
361
root  42.5835 33.5004 39.5243 -172.366 -48.2475 -175.95
RightUpLeg  -32.7661 -2.84833 8.30332
RightLeg  27.4162 -4.53387 -1.99602
RightFoot  1.5422 0.00866938 -0.266453
RightToes  -40.5355 -0.222775 -0.318127
Spine  5.88873 -4.39961 -0.316728
Spine1  11.4843 -9.2338 -0.354073
HEad  8.15684 -16.3221 24.2515
LeftShoulder1  0 -2.42657e-020 -4.95415e-022
LeftArm  -6.68424 7.27458 -71.0519
LeftForeArm  36.9814 -48.131 -11.3583
LeftHand  -0.475549 -7.03383 7.36327
RightShoulder  0 2.42657e-020 1.07489e-018
RightArm  -53.281 -19.7117 83.8654
RightForeArm  50.2258 20.2474 3.69857
RightHand  -1.47586 18.5923 -8.63118
LeftUpLeg  -10.0155 -1.26059 -0.906168
LeftLeg  19.873 -1.0614 -0.310517
LeftFoot  -11.5472 0.0231559 0.229006
LeftToes  -4.9839 9.37529e-007 1.1992e-007
362
root  43.1621 33.6478 39.5322 -172.525 -48.78 -175.774
RightUpLeg  -31.2765 -1.41065 5.40157
RightLeg  28.3399 -9.25255 -4.22536
RightFoot  0.182193 0.000818548 -0.136754
RightToes  -36.5669 -0.191655 -0.294919
Spine  5.73176 -4.2564 -0.209555
Spine1  11.2135 -8.84562 -0.34178
HEad  8.19441 -16.7954 24.4442
LeftShoulder1  0 -2.42657e-020 -4.95415e-022
LeftArm  -7.38112 10.3209 -71.8534
LeftForeArm  37.5047 -47.1734 -10.9758
LeftHand  -0.479188 -7.20444 7.23762
RightShoulder  0 2.42657e-020 1.07489e-018
RightArm  -51.6442 -19.0113 82.4757
RightForeArm  49.6877 20.8294 3.81666
RightHand  -1.50074 18.5747 -8.79117
LeftUpLeg  -10.2977 -1.42796 -0.0489781
LeftLeg  18.8408 -1.44565 -0.393833
LeftFoot  -10.102 0.0214661 0.252241
LeftToes  -6.22947 9.37529e-007 1.1992e-007
363
root  43.66 33.7366 39.4782 -172.504 -49.0985 -176.034
RightUpLeg  -29.3782 0.694214 1.83669
RightLeg  29.2023 -10.0853 -4.78306
RightFoot  -0.598973 -0.00176211 0.0404846
RightToes  -35.4341 -0.183075 -0.287905
Spine  5.59446 -3.95466 -0.16354
Spine1  10.9778 -8.14345 -0.421812
HEad  8.31564 -17.7531 24.54
LeftShoulder1  0 -2.42657e-020 -4.95415e-022
LeftArm  -8.14724 13.0253 -72.8186
LeftForeArm  39.0628 -46.0688 -10.5509
LeftHand  -0.493546 -7.58274 7.07373
RightShoulder  0 2.42657e-020 1.07489e-018
RightArm  -49.9528 -18.2987 80.9685
RightForeArm  49.0965 21.0293 3.85814
RightHand  -1.56898 18.5229 -9.23298
LeftUpLeg  -10.0891 -1.25614 0.478412
LeftLeg  17.5532 -1.99244 -0.493973
LeftFoot  -8.86986 0.0223707 0.288425
LeftToes  -7.2608 9.37529e-007 1.1992e-007
364
root  44.0928 33.7738 39.3761 -172.325 -49.4021 -176.717
RightUpLeg  -27.1018 2.6101 -1.9385
RightLeg  29.6726 -9.2705 -4.49586
RightFoot  -1.60933 -0.00188028 0.24378
RightToes  -35.1061 -0.180616 -0.285842
Spine  5.47782 -3.62885 -0.173157
Spine1  10.7733 -7.39653 -0.59071
HEad  8.60098 -18.8074 24.4388
LeftShoulder1  0 -2.42657e-020 -4.95415e-022
LeftArm  -8.71093 15.4848 -73.6725
LeftForeArm  39.6144 -45.215 -10.2351
LeftHand  -0.482004 -7.77123 6.72356
RightShoulder  0 2.42657e-020 1.07489e-018
RightArm  -48.0047 -17.5533 79.5159
RightForeArm  47.8178 21.0849 3.87156
RightHand  -1.5933 18.255 -9.52611
LeftUpLeg  -9.74488 -0.74836 0.718636
LeftLeg  16.5789 -2.8558 -0.655552
LeftFoot  -7.79091 0.0239935 0.35235
LeftToes  -8.843 9.37529e-007 1.1992e-007
365
root  44.483 33.7635 39.219 -171.978 -49.2804 -177.835
RightUpLeg  -24.6071 2.6077 -5.45955
RightLeg  29.5446 -7.73132 -3.73716
RightFoot  -2.13284 -0.00152336 0.29581
RightToes  -35.9586 -0.187031 -0.291174
Spine  5.3966 -3.14986 -0.311029
Spine1  10.6253 -6.34179 -0.988446
HEad  9.46929 -20.1733 23.895
LeftShoulder1  0 -2.42657e-020 -4.95415e-022
LeftArm  -9.31561 17.6492 -74.3586
LeftForeArm  40.1893 -44.5001 -9.97792
LeftHand  -0.459776 -7.8985 6.28797
RightShoulder  0 2.42657e-020 1.07489e-018
RightArm  -49.1817 -16.1501 78.7744
RightForeArm  49.5181 20.2866 3.70766
RightHand  -1.62785 18.6819 -9.50571
LeftUpLeg  -9.16061 0.228668 0.711973
LeftLeg  15.7533 -3.98536 -0.8534
LeftFoot  -6.7689 0.0247153 0.41791
LeftToes  -11.1789 9.37529e-007 1.1992e-007
366
root  44.8619 33.7211 39.0163 -171.459 -48.7499 -178.894
RightUpLeg  -22.317 1.31379 -8.71148
RightLeg  28.495 -6.66488 -3.07707
RightFoot  -1.50605 0.00739573 0.185358
RightToes  -37.2513 -0.196906 -0.299075
Spine  5.28508 -2.54543 -0.419118
Spine1  10.3868 -5.04671 -1.3102
HEad  10.3807 -21.5189 23.1761
LeftShoulder1  0 -2.42657e-020 -4.95415e-022
LeftArm  -10.0356 19.4023 -75.0841
LeftForeArm  41.9285 -43.7429 -9.71103
LeftHand  -0.479058 -8.37225 6.17329
RightShoulder  0 2.42657e-020 1.07489e-018
RightArm  -49.014 -14.93 78.0029
RightForeArm  50.0809 19.7663 3.60267
RightHand  -1.60523 18.8234 -9.29488
LeftUpLeg  -8.72035 1.86571 0.716788
LeftLeg  15.1587 -5.16359 -1.04861
LeftFoot  -6.36126 0.027939 0.502763
LeftToes  -12.0824 9.37529e-007 1.1992e-007
